# AST/ASF file generated using VICON BodyLanguage
# -----------------------------------------------
:version 1.10
:name VICON
:units
  mass 1.0
  length 0.45
  angle deg
:documentation
   .ast/.asf automatically generated from VICON data using
   VICON BodyBuilder and BodyLanguage model FoxedUp or BRILLIANT.MOD
:root
   order TX TY TZ RX RY RZ
   axis XYZ
   position 0 0 0  
   orientation 0 0 0 
:bonedata
  begin
     id 1 
     name lhipjoint
     direction 0.589753 -0.68606 0.426044 
     length 2.54082 
     axis 0 0 0  XYZ
  end
  begin
     id 2 
     name lfemur
     direction 0.34202 -0.939693 0  
     length 7.04539  
     axis 0 0 20  XYZ
    dof rx ry rz
    limits (-160.0 20.0)
           (-70.0 70.0)
           (-60.0 70.0)
  end
  begin
     id 3 
     name ltibia
     direction 0.34202 -0.939693 0   
     length 7.83772   
     axis 0 0 20   XYZ
    dof rx
    limits (-10.0 170.0)
  end
  begin
     id 4 
     name lfoot
     direction 0.0596604 -0.163915 0.984669   
     length 2.39542   
     axis -90 7.62852e-016 20   XYZ
    dof rx rz
    limits (-45.0 90.0)
           (-70.0 20.0)
  end
  begin
     id 5 
     name ltoes
     direction 1.53514e-011 -4.21954e-011 1   
     length 1.2047   
     axis -90 7.62852e-016 20   XYZ
    dof rx
    limits (-90.0 20.0)
  end
  begin
     id 6 
     name rhipjoint
     direction -0.580585 -0.69168 0.429534   
     length 2.52018  
     axis 0 0 0  XYZ 
  end
  begin
     id 7 
     name rfemur
     direction -0.34202 -0.939693 0   
     length 7.0101   
     axis 0 0 -20   XYZ
    dof rx ry rz
    limits (-160.0 20.0)
           (-70.0 70.0)
           (-70.0 60.0)
  end
  begin
     id 8 
     name rtibia
     direction -0.34202 -0.939693 0   
     length 7.70628   
     axis 0 0 -20   XYZ
    dof rx
    limits (-10.0 170.0)
 end
 begin
     id 9 
     name rfoot
     direction -0.0696237 -0.19129 0.979061   
     length 2.52466  
     axis -90 -7.62852e-016 -20   XYZ
    dof rx rz
    limits (-45.0 90.0)
           (-20.0 70.0)
  end
  begin
     id 10 
     name rtoes
     direction -1.53519e-011 -4.21793e-011 1   
     length 1.266   
     axis -90 -7.62852e-016 -20   XYZ
    dof rx
    limits (-90.0 20.0)
  end
  begin
     id 11 
     name lowerback
     direction 0.00381965 0.995707 -0.0924856   
     length 2.20825   
     axis 0 0 0   XYZ
    dof rx ry rz
    limits (-20.0 45.0)
           (-30.0 30.0)
           (-30.0 30.0)
  end
  begin
     id 12 
     name upperback
     direction -0.0139043 0.999634 -0.0231929   
     length 2.21517   
     axis 0 0 0   XYZ
    dof rx ry rz
    limits (-20.0 45.0)
           (-30.0 30.0)
           (-30.0 30.0)
  end
  begin
     id 13 
     name thorax
     direction -0.0143933 0.999691 0.0202892   
     length 2.22911   
     axis 0 0 0   XYZ
    dof rx ry rz
    limits (-20.0 45.0)
           (-30.0 30.0)
           (-30.0 30.0)
  end
  begin
     id 14 
     name lowerneck
     direction -0.0251153 0.981819 0.188153   
     length 1.61782   
     axis 0 0 0   XYZ
    dof rx ry rz
    limits (-20.0 45.0)
           (-30.0 30.0)
           (-30.0 30.0)
  end
  begin
     id 15 
     name upperneck
     direction 0.0563891 0.969357 -0.239095   
     length 1.64526   
     axis 0 0 0   XYZ
    dof rx ry rz
    limits (-20.0 45.0)
           (-30.0 30.0)
           (-30.0 30.0)
  end
  begin
     id 16
     name head
     direction 0.0208328 0.99459 -0.101773  
     length 1.67436  
     axis 0 0 0   XYZ
    dof rx ry rz
    limits (-20.0 45.0)
           (-30.0 30.0)
           (-30.0 30.0)
  end
  begin
     id 17 
     name lclavicle
     direction 0.917689 0.397224 0.00772059  
     length 3.31102  
     axis 0 0 0   XYZ
    dof ry rz
    limits (-20.0 10.0)
           (0.0 20.0)
  end
  begin
     id 18 
     name lhumerus
     direction 1 -4.4896e-011 2.32308e-027   
     length 5.25537   
     axis 180 -30 -90   XYZ
    dof rx ry rz
    limits (-60.0 90.0)
           (-90.0 90.0)
           (-90.0 90.0)
  end
  begin
     id 19
     name lradius
     direction 1 -4.49005e-011 -2.04271e-027   
     length 3.38855   
     axis 180 -30 -90   XYZ
    dof rx
    limits (-10.0 170.0)
  end
  begin
     id 20
     name lwrist
     direction 1 -4.48892e-011 2.56952e-028   
     length 1.69428   
     axis -5.12785e-016 90 90   XYZ
    dof ry
    limits (-180.0 0.0)
 end
  begin
     id 21 
     name lhand
     direction 1 -4.48966e-011 5.13905e-028   
     length 0.614516   
     axis -3.27915e-016 90 90   XYZ
    dof rx rz
    limits (-90.0 90.0)
           (-45.0 45.0)
  end
  begin
     id 22 
     name lfingers
     direction 1 -4.48979e-011 1.02781e-027   
     length 0.495439   
     axis -6.5583e-016 90 90   XYZ
    dof rx
    limits (0.0 90.0)
  end
  begin
     id 23
     name lthumb
     direction 0.707107 -6.35001e-011 0.707107   
     length 0.711354   
     axis -90 45 2.85299e-015   XYZ
    dof rx rz
    limits (-45.0 45.0)
           (-45.0 45.0)
  end
  begin
     id 24 
     name rclavicle
     direction -0.938556 0.342765 -0.0403177   
     length 3.27019  
     axis 0 0 0   XYZ 
    dof ry rz
    limits (-10.0 20.0)
           (-20.0 0.0)
  end
  begin
     id 25 
     name rhumerus
     direction -1 -4.48966e-011 2.52291e-027  
     length 5.38183   
     axis 180 30 90   XYZ
    dof rx ry rz
    limits (-90.0 60.0)
           (-90.0 90.0)
           (-90.0 90.0)
  end
  begin
     id 26 
     name rradius
     direction -1 -4.4896e-011 1.5797e-027   
     length 3.16988   
     axis 180 30 90   XYZ
    dof rx
    limits (-10.0 170.0)
  end
  begin
     id 27 
     name rwrist
     direction -1 -4.48947e-011 2.56952e-028   
     length 1.58494   
     axis -5.12785e-016 -90 -90   XYZ
    dof ry
    limits (-180.0 0.0)
  end
  begin
     id 28
     name rhand
     direction -1 -4.49098e-011 5.13905e-028   
     length 0.637679   
     axis -3.27915e-016 -90 -90   XYZ
    dof rx rz
    limits (-90.0 90.0)
           (-45.0 45.0)
  end
  begin
     id 29
     name rfingers
     direction -1 -4.49026e-011 1.02781e-027   
     length 0.514113   
     axis -6.5583e-016 -90 -90   XYZ
    dof rx
    limits (0.0 90.0)
  end
  begin
     id 30
     name rthumb
     direction -0.707107 -6.3491e-011 0.707107   
     length 0.738167   
     axis -90 -45 -2.85299e-015   XYZ
    dof rx rz
    limits (-45.0 45.0)
           (-45.0 45.0)
  end
:hierarchy
  begin
    root lhipjoint rhipjoint lowerback
    lhipjoint lfemur
    lfemur ltibia
    ltibia lfoot
    lfoot ltoes
    rhipjoint rfemur
    rfemur rtibia
    rtibia rfoot
    rfoot rtoes
    lowerback upperback
    upperback thorax
    thorax lowerneck lclavicle rclavicle
    lowerneck upperneck
    upperneck head
    lclavicle lhumerus
    lhumerus lradius
    lradius lwrist
    lwrist lhand lthumb
    lhand lfingers
    rclavicle rhumerus
    rhumerus rradius
    rradius rwrist
    rwrist rhand rthumb
    rhand rfingers
  end

#!OML:ASF H:\Swim\Project 1\Capture day 1\Session 1\swimmer.ASF
:FULLY-SPECIFIED
:DEGREES
611
root 5.68098 17.107 13.9045 48.8703 -2.65631 -6.54481
lowerback 25.7009 -0.966438 -0.739496
upperback 13.2751 -1.42821 -0.454059
thorax 0.459811 -0.752502 0.276615
lowerneck -4.26954 -6.78217 -12.5425
upperneck 41.9568 -7.7794 2.15799
head 16.5641 -4.75854 2.08788
rclavicle -3.18055e-015 -6.95746e-016
rhumerus 415.523 24.1999 334.617
rradius 38.3601
rwrist -39.7948
rhand -56.4685 20.6462
rfingers 7.12502
rthumb -28.7839 -7.15453
lclavicle -3.18055e-015 -6.95746e-016
lhumerus 26.4633 -11.0384 38.2675
lradius 48.2249
lwrist -0.316727
lhand -53.7638 33.2181
lfingers 7.12502
lthumb -26.1972 61.4302
rfemur -60.9419 -2.66018 24.0327
rtibia 68.8399
rfoot -8.07503 8.4098
rtoes -18.2126
lfemur -46.256 -12.2885 -13.2957
ltibia 23.5129
lfoot -19.1142 19.6559
ltoes 8.20159
612
root 5.68835 17.1348 13.8954 49.0195 -2.85473 -6.71805
lowerback 25.5758 -0.875836 -0.804796
upperback 13.2545 -1.33173 -0.42866
thorax 0.496509 -0.711519 0.315893
lowerneck -4.22771 -6.81006 -12.5734
upperneck 41.922 -7.80336 2.11682
head 16.5381 -4.77598 2.07252
rclavicle 2.38542e-014 -1.53561e-014
rhumerus 415.63 24.0579 334.499
rradius 38.2548
rwrist -39.5818
rhand -56.3596 20.3841
rfingers 7.12502
rthumb -28.6799 -7.43422
lclavicle 2.38542e-014 -1.53561e-014
lhumerus 26.4711 -11.0249 38.2264
lradius 48.1933
lwrist -0.219242
lhand -53.7599 33.3114
lfingers 7.12502
lthumb -26.1935 61.5241
rfemur -61.1724 -2.44728 23.8067
rtibia 70.7356
rfoot -7.96782 8.15557
rtoes -18.6452
lfemur -45.9558 -12.0745 -13.2462
ltibia 22.6176
lfoot -18.6761 19.6558
ltoes 8.35664
613
root 5.69598 17.1624 13.8875 49.1809 -3.0716 -6.91557
lowerback 25.4338 -0.776487 -0.875116
upperback 13.2313 -1.22559 -0.407305
thorax 0.53784 -0.666069 0.351363
lowerneck -4.19798 -6.83147 -12.6037
upperneck 41.8913 -7.8172 2.07559
head 16.5161 -4.78934 2.05821
rclavicle 2.8625e-014 -1.61513e-014
rhumerus 415.741 23.9281 334.378
rradius 38.1434
rwrist -39.3625
rhand -56.2592 20.1398
rfingers 7.12502
rthumb -28.5839 -7.69477
lclavicle 2.8625e-014 -1.61513e-014
lhumerus 26.4704 -11.0056 38.1958
lradius 48.1572
lwrist -0.135348
lhand -53.7485 33.3762
lfingers 7.12502
lthumb -26.1825 61.5905
rfemur -61.3785 -2.23164 23.5766
rtibia 72.6293
rfoot -7.8809 7.86867
rtoes -19.0124
lfemur -45.6412 -11.831 -13.1963
ltibia 21.6954
lfoot -18.2335 19.6606
ltoes 8.49895
614
root 5.70378 17.1901 13.879 49.3374 -3.26223 -7.1356
lowerback 25.3052 -0.683749 -0.916474
upperback 13.2045 -1.12144 -0.378314
thorax 0.568376 -0.620421 0.379648
lowerneck -4.17514 -6.84661 -12.6326
upperneck 41.8613 -7.82146 2.03292
head 16.4948 -4.79891 2.04434
rclavicle 1.59028e-015 -1.77415e-014
rhumerus 415.854 23.8133 334.257
rradius 38.0304
rwrist -39.1387
rhand -56.168 19.911
rfingers 7.12502
rthumb -28.4968 -7.93819
lclavicle 1.59028e-015 -1.77415e-014
lhumerus 26.4581 -10.9814 38.1771
lradius 48.1219
lwrist -0.0516406
lhand -53.7364 33.4268
lfingers 7.12502
lthumb -26.171 61.6428
rfemur -61.5503 -2.03661 23.3733
rtibia 74.5111
rfoot -8.05702 7.72833
rtoes -19.9677
lfemur -45.3118 -11.586 -13.1125
ltibia 20.7542
lfoot -17.773 19.6731
ltoes 8.64868
615
root 5.71186 17.2171 13.8712 49.514 -3.45483 -7.37265
lowerback 25.1489 -0.588413 -0.953006
upperback 13.1742 -1.01278 -0.349165
thorax 0.607715 -0.572398 0.40423
lowerneck -4.15925 -6.85776 -12.6624
upperneck 41.8317 -7.82049 1.99324
head 16.4752 -4.80622 2.03253
rclavicle 1.59028e-014 1.03865e-014
rhumerus 415.964 23.7088 334.137
rradius 37.9188
rwrist -38.9134
rhand -56.0873 19.717
rfingers 7.12502
rthumb -28.4196 -8.14507
lclavicle 1.59028e-014 1.03865e-014
lhumerus 26.4388 -10.9604 38.1629
lradius 48.0818
lwrist 0.00932669
lhand -53.739 33.4888
lfingers 7.12502
lthumb -26.1735 61.7045
rfemur -61.7112 -1.84805 23.1681
rtibia 76.376
rfoot -8.38228 7.7168
rtoes -21.2585
lfemur -44.9887 -11.3245 -13.017
ltibia 19.7992
lfoot -17.307 19.6883
ltoes 8.78912
616
root 5.72011 17.2437 13.8641 49.7197 -3.64728 -7.62475
lowerback 24.9525 -0.491299 -0.983194
upperback 13.1387 -0.900106 -0.320885
thorax 0.659846 -0.522087 0.423243
lowerneck -4.15042 -6.865 -12.6899
upperneck 41.8026 -7.8152 1.95721
head 16.457 -4.81114 2.02239
rclavicle -1.43125e-014 1.2921e-015
rhumerus 416.066 23.6141 334.015
rradius 37.8125
rwrist -38.6896
rhand -56.0113 19.5506
rfingers 7.12502
rthumb -28.3471 -8.32361
lclavicle -1.43125e-014 1.2921e-015
lhumerus 26.4154 -10.9358 38.1542
lradius 48.0446
lwrist 0.0686421
lhand -53.7273 33.5158
lfingers 7.12502
lthumb -26.1623 61.7331
rfemur -61.8704 -1.67433 22.963
rtibia 78.2156
rfoot -8.85616 7.94025
rtoes -22.7101
lfemur -44.6802 -11.0478 -12.9076
ltibia 18.8272
lfoot -16.8356 19.7019
ltoes 8.9176
617
root 5.72867 17.2692 13.8572 49.9462 -3.83157 -7.88307
lowerback 24.7302 -0.397962 -0.999925
upperback 13.0981 -0.788914 -0.294743
thorax 0.718332 -0.471648 0.432879
lowerneck -4.14251 -6.87387 -12.7129
upperneck 41.7733 -7.81137 1.91697
head 16.4385 -4.81645 2.00938
rclavicle -1.59028e-014 5.01931e-015
rhumerus 416.156 23.5295 333.891
rradius 37.7148
rwrist -38.472
rhand -55.9462 19.4225
rfingers 7.12502
rthumb -28.2848 -8.46204
lclavicle -1.59028e-014 5.01931e-015
lhumerus 26.3898 -10.9106 38.1461
lradius 48.013
lwrist 0.128165
lhand -53.6919 33.5271
lfingers 7.12502
lthumb -26.1284 61.7494
rfemur -62.0238 -1.52237 22.753
rtibia 80.0295
rfoot -9.32214 8.33186
rtoes -23.9492
lfemur -44.3801 -10.7684 -12.7857
ltibia 17.8328
lfoot -16.3446 19.7176
ltoes 9.04792
618
root 5.73736 17.2939 13.8512 50.1914 -4.00962 -8.13977
lowerback 24.4816 -0.308151 -1.00894
upperback 13.052 -0.679996 -0.271943
thorax 0.783264 -0.421648 0.435369
lowerneck -4.13559 -6.88627 -12.7308
upperneck 41.7466 -7.81053 1.86951
head 16.4214 -4.82299 1.99179
rclavicle 3.18055e-015 -2.78299e-015
rhumerus 416.232 23.4548 333.767
rradius 37.6291
rwrist -38.2677
rhand -55.8837 19.2969
rfingers 7.12502
rthumb -28.2251 -8.59747
lclavicle 3.18055e-015 -2.78299e-015
lhumerus 26.3623 -10.8852 38.141
lradius 47.9933
lwrist 0.213966
lhand -53.6239 33.4885
lfingers 7.12502
lthumb -26.0633 61.7205
rfemur -62.1625 -1.39973 22.5292
rtibia 81.808
rfoot -9.61043 8.77204
rtoes -24.5609
lfemur -44.0823 -10.492 -12.6592
ltibia 16.8124
lfoot -15.8446 19.729
ltoes 9.17315
619
root 5.74622 17.3172 13.8459 50.4406 -4.17484 -8.38549
lowerback 24.2252 -0.226359 -1.00505
upperback 13.0032 -0.578092 -0.253598
thorax 0.848956 -0.374029 0.427852
lowerneck -4.1297 -6.90143 -12.7457
upperneck 41.7221 -7.81361 1.82142
head 16.4059 -4.83076 1.97278
rclavicle -3.18055e-014 1.49089e-014
rhumerus 416.294 23.3889 333.644
rradius 37.553
rwrist -38.0784
rhand -55.8214 19.1704
rfingers 7.12502
rthumb -28.1655 -8.73378
lclavicle -3.18055e-014 1.49089e-014
lhumerus 26.3346 -10.8622 38.1361
lradius 47.9879
lwrist 0.335404
lhand -53.5365 33.3963
lfingers 7.12502
lthumb -25.9796 61.6406
rfemur -62.2675 -1.31917 22.2901
rtibia 83.5501
rfoot -9.64878 9.0842
rtoes -24.6126
lfemur -43.7727 -10.2327 -12.5328
ltibia 15.7638
lfoot -15.3308 19.7408
ltoes 9.28776
620
root 5.75505 17.339 13.8414 50.6819 -4.32525 -8.61421
lowerback 23.9749 -0.153263 -0.990139
upperback 12.9524 -0.484602 -0.239425
thorax 0.910011 -0.329545 0.412093
lowerneck -4.12662 -6.917 -12.7559
upperneck 41.6973 -7.81892 1.77644
head 16.3909 -4.83844 1.95393
rclavicle 3.18055e-015 1.5207e-014
rhumerus 416.339 23.3346 333.527
rradius 37.4875
rwrist -37.9078
rhand -55.7555 19.0379
rfingers 7.12502
rthumb -28.1025 -8.87671
lclavicle 3.18055e-015 1.5207e-014
lhumerus 26.3038 -10.8568 38.1269
lradius 47.9877
lwrist 0.44869
lhand -53.4762 33.3467
lfingers 7.12502
lthumb -25.9219 61.5994
rfemur -62.3186 -1.28583 22.0312
rtibia 85.248
rfoot -9.44588 9.16635
rtoes -24.3276
lfemur -43.436 -9.99812 -12.4112
ltibia 14.6796
lfoot -14.802 19.7533
ltoes 9.40234
621
root 5.76386 17.3594 13.8377 50.9091 -4.46224 -8.81885
lowerback 23.7399 -0.088801 -0.968161
upperback 12.9011 -0.400363 -0.229702
thorax 0.963649 -0.288782 0.390183
lowerneck -4.12358 -6.92973 -12.7673
upperneck 41.6689 -7.82542 1.74601
head 16.3747 -4.8452 1.94155
rclavicle 1.11319e-014 0
rhumerus 416.369 23.288 333.417
rradius 37.4309
rwrist -37.7545
rhand -55.6903 18.904
rfingers 7.12502
rthumb -28.0402 -9.0208
lclavicle 1.11319e-014 0
lhumerus 26.2701 -10.8739 38.1152
lradius 47.9848
lwrist 0.51428
lhand -53.479 33.3906
lfingers 7.12502
lthumb -25.9245 61.643
rfemur -62.3096 -1.30461 21.7493
rtibia 86.9002
rfoot -8.96795 8.9345
rtoes -23.8157
lfemur -43.0638 -9.7944 -12.3013
ltibia 13.5543
lfoot -14.255 19.7683
ltoes 9.53011
622
root 5.77286 17.3782 13.8345 51.1177 -4.57409 -8.99801
lowerback 23.5253 -0.0386279 -0.928182
upperback 12.8504 -0.330361 -0.221379
thorax 1.00862 -0.253735 0.360193
lowerneck -4.12133 -6.93501 -12.7785
upperneck 41.6329 -7.82765 1.73183
head 16.3548 -4.84847 1.937
rclavicle 3.18055e-015 -2.03754e-014
rhumerus 416.389 23.2519 333.326
rradius 37.3844
rwrist -37.6231
rhand -55.6322 18.792
rfingers 7.12502
rthumb -27.9847 -9.14189
lclavicle 3.18055e-015 -2.03754e-014
lhumerus 26.2308 -10.9074 38.1039
lradius 47.9816
lwrist 0.527392
lhand -53.5349 33.5303
lfingers 7.12502
lthumb -25.9781 61.7748
rfemur -62.2344 -1.38759 21.4526
rtibia 88.5041
rfoot -8.42 8.61947
rtoes -23.3204
lfemur -42.6468 -9.6308 -12.1951
ltibia 12.3718
lfoot -13.6818 19.7848
ltoes 9.67381
623
root 5.78208 17.3959 13.8319 51.3108 -4.6545 -9.15248
lowerback 23.3275 -0.00481263 -0.865582
upperback 12.8014 -0.276312 -0.211391
thorax 1.04781 -0.225158 0.322997
lowerneck -4.12721 -6.93269 -12.7884
upperneck 41.5947 -7.82314 1.72963
head 16.3353 -4.84757 1.93832
rclavicle -1.43125e-014 -5.96354e-015
rhumerus 416.404 23.2252 333.264
rradius 37.3495
rwrist -37.515
rhand -55.5842 18.7012
rfingers 7.12502
rthumb -27.9388 -9.24014
lclavicle -1.43125e-014 -5.96354e-015
lhumerus 26.1879 -10.9385 38.105
lradius 47.9826
lwrist 0.515976
lhand -53.5999 33.6619
lfingers 7.12502
lthumb -26.0403 61.8972
rfemur -62.0953 -1.53274 21.145
rtibia 90.0561
rfoot -7.8065 8.28543
rtoes -22.9053
lfemur -42.1805 -9.50946 -12.0854
ltibia 11.1119
lfoot -13.0651 19.8052
ltoes 9.81618
624
root 5.7911 17.4127 13.8301 51.4989 -4.7182 -9.28811
lowerback 23.1335 0.0207158 -0.798572
upperback 12.7521 -0.231621 -0.20109
thorax 1.08541 -0.200758 0.285888
lowerneck -4.14751 -6.92246 -12.7883
upperneck 41.5595 -7.80768 1.72681
head 16.3188 -4.8409 1.93889
rclavicle -1.11319e-014 1.79403e-014
rhumerus 416.416 23.2087 333.231
rradius 37.3268
rwrist -37.4278
rhand -55.5469 18.609
rfingers 7.12502
rthumb -27.9031 -9.33813
lclavicle -1.11319e-014 1.79403e-014
lhumerus 26.1419 -10.9549 38.1225
lradius 47.9967
lwrist 0.516902
lhand -53.6322 33.7151
lfingers 7.12502
lthumb -26.0712 61.9458
rfemur -61.9041 -1.72862 20.8215
rtibia 91.5539
rfoot -7.16262 8.009
rtoes -22.4196
lfemur -41.6407 -9.32048 -12.0616
ltibia 9.74153
lfoot -12.4041 19.7005
ltoes 9.97001
625
root 5.80009 17.4285 13.8287 51.6817 -4.75915 -9.40508
lowerback 22.9441 0.0345784 -0.718451
upperback 12.7046 -0.19898 -0.190845
thorax 1.12309 -0.181409 0.244039
lowerneck -4.18957 -6.90815 -12.767
upperneck 41.5301 -7.78257 1.70904
head 16.307 -4.82882 1.93004
rclavicle 9.54166e-015 -5.91384e-015
rhumerus 416.424 23.1979 333.215
rradius 37.3169
rwrist -37.3605
rhand -55.523 18.5484
rfingers 7.12502
rthumb -27.8803 -9.40247
lclavicle 9.54166e-015 -5.91384e-015
lhumerus 26.0971 -10.9595 38.1503
lradius 48.0144
lwrist 0.492616
lhand -53.6385 33.7478
lfingers 7.12502
lthumb -26.0772 61.9777
rfemur -61.6601 -1.97209 20.4825
rtibia 92.9961
rfoot -6.49845 7.79098
rtoes -21.8532
lfemur -41.0151 -9.15859 -12.0304
ltibia 8.2037
lfoot -11.6565 19.5923
ltoes 10.1139
